HIERARCHY
ROOT root
{
	OFFSET 0.000000 0.000000 0.000000
	CHANNELS 6 Xposition Yposition Zposition Zrotation Yrotation Xrotation
	JOINT lhip
	{
		OFFSET 0.058581 -0.082280 -0.017664
		CHANNELS 3 Zrotation Yrotation Xrotation
		JOINT lknee
		{
			OFFSET 0.043451 -0.386469 0.008037
			CHANNELS 3 Zrotation Yrotation Xrotation
			JOINT lankle
			{
				OFFSET -0.014790 -0.426874 -0.037428
				CHANNELS 3 Zrotation Yrotation Xrotation
				JOINT ltoe
				{
					OFFSET 0.041054 -0.060286 0.122042
					CHANNELS 3 Zrotation Yrotation Xrotation
					End Site
					{
						OFFSET 0.000000 0.000000 0.000000
					}
				}
			}
		}
	}
	JOINT rhip
	{
		OFFSET -0.060310 -0.090513 -0.013543
		CHANNELS 3 Zrotation Yrotation Xrotation
		JOINT rknee
		{
			OFFSET -0.043257 -0.383688 -0.004843
			CHANNELS 3 Zrotation Yrotation Xrotation
			JOINT rankle
			{
				OFFSET 0.019056 -0.420046 -0.034562
				CHANNELS 3 Zrotation Yrotation Xrotation
				JOINT rtoe
				{
					OFFSET -0.034840 -0.062106 0.130323
					CHANNELS 3 Zrotation Yrotation Xrotation
					End Site
					{
						OFFSET 0.000000 0.000000 0.000000
					}
				}
			}
		}
	}
	JOINT lowerback
	{
		OFFSET 0.004439 0.124404 -0.038385
		CHANNELS 3 Zrotation Yrotation Xrotation
		JOINT upperback
		{
			OFFSET 0.004488 0.137956 0.026820
			CHANNELS 3 Zrotation Yrotation Xrotation
			JOINT chest
			{
				OFFSET -0.002265 0.056032 0.002855
				CHANNELS 3 Zrotation Yrotation Xrotation
				JOINT lowerneck
				{
					OFFSET -0.013390 0.211636 -0.033468
					CHANNELS 3 Zrotation Yrotation Xrotation
					JOINT upperneck
					{
						OFFSET 0.010113 0.088937 0.050410
						CHANNELS 3 Zrotation Yrotation Xrotation
						End Site
						{
							OFFSET 0.000000 0.000000 0.000000
						}
					}
				}
				JOINT lclavicle
				{
					OFFSET 0.071702 0.114000 -0.018898
					CHANNELS 3 Zrotation Yrotation Xrotation
					JOINT lshoulder
					{
						OFFSET 0.122921 0.045205 -0.019046
						CHANNELS 3 Zrotation Yrotation Xrotation
						JOINT lelbow
						{
							OFFSET 0.255332 -0.015649 -0.022946
							CHANNELS 3 Zrotation Yrotation Xrotation
							JOINT lwrist
							{
								OFFSET 0.265709 0.012698 -0.007375
								CHANNELS 3 Zrotation Yrotation Xrotation
								End Site
								{
									OFFSET 0.000000 0.000000 0.000000
								}
							}
						}
					}
				}
				JOINT rclavicle
				{
					OFFSET -0.082954 0.112472 -0.023707
					CHANNELS 3 Zrotation Yrotation Xrotation
					JOINT rshoulder
					{
						OFFSET -0.113228 0.046853 -0.008472
						CHANNELS 3 Zrotation Yrotation Xrotation
						JOINT relbow
						{
							OFFSET -0.260127 -0.014369 -0.031269
							CHANNELS 3 Zrotation Yrotation Xrotation
							JOINT rwrist
							{
								OFFSET -0.269108 0.006794 -0.006027
								CHANNELS 3 Zrotation Yrotation Xrotation
								End Site
								{
									OFFSET 0.000000 0.000000 0.000000
								}
							}
						}
					}
				}
			}
		}
	}
}
MOTION
Frames: 14
Frame Time: 0.033333
0.109365 -0.115680 0.946788 150.718026 6.634858 89.784063 26.360612 12.021591 -4.992168 2.197539 9.225213 28.823184 -13.835039 1.391180 -6.163325 0.000000 -0.000000 0.000000 1.974385 7.507380 -23.524201 1.573167 0.625944 28.122732 3.215528 8.886593 -13.712236 0.000000 -0.000000 0.000000 -10.873710 -4.657212 13.748418 2.072683 -20.070223 11.059568 -1.298629 -10.309174 -9.861047 -6.974950 52.171030 13.149842 -2.456073 21.842710 6.027101 -4.346727 -55.789980 -2.762061 -43.678086 -62.326214 13.648672 -0.318730 -17.121606 20.588217 7.559660 -12.322018 4.453298 12.396102 21.727973 1.147735 67.505776 25.542770 16.158453 -86.615061 43.285788 -64.552196 -40.047422 -4.851571 -52.475703 
0.117839 -0.114701 0.947940 149.577536 6.544271 89.763264 26.689439 12.257155 -4.324479 2.420878 8.956131 28.783019 -14.676826 1.504416 -4.869417 0.000000 -0.000000 0.000000 2.511492 7.959370 -23.478315 1.757020 1.199007 28.211674 3.262863 8.850205 -13.636691 0.000000 -0.000000 0.000000 -11.199682 -5.362884 13.829552 2.036211 -20.966911 10.464596 -1.369068 -10.755068 -10.254144 -8.079481 53.349675 11.357494 -2.736315 22.613007 5.334888 -1.776764 -57.271952 -5.036076 -36.881062 -65.047175 8.350574 0.297889 -17.996807 18.749752 7.691213 -13.362799 5.225179 11.266738 22.106154 -0.180310 64.413497 27.265886 14.807620 -91.065222 42.347789 -66.731575 -41.732795 -1.922300 -48.716346 
0.125632 -0.113317 0.949219 148.646109 6.485009 89.821441 26.958577 12.517897 -3.723136 2.603003 9.018030 28.513484 -15.534996 1.921986 -3.516275 0.000000 -0.000000 0.000000 2.983006 8.435452 -23.469598 1.999532 1.767640 28.286552 3.348680 8.591693 -13.543230 0.000000 -0.000000 0.000000 -11.163730 -6.168020 14.238414 2.011663 -21.734182 9.349709 -1.400102 -11.064832 -10.652574 -9.340942 54.415736 9.639866 -2.713756 23.501490 4.883127 0.824582 -58.651439 -7.680063 -29.975795 -67.229387 2.852902 0.908344 -18.834385 17.242704 8.507457 -13.363270 6.098400 10.045145 22.456586 -1.527648 60.515293 28.670664 13.106123 -94.865204 41.689209 -68.081155 -44.703560 -0.277545 -44.182816 
0.132746 -0.111782 0.950586 147.974810 6.324206 89.851353 27.071455 13.102748 -3.125269 2.745144 8.839418 28.062490 -16.242827 2.353380 -2.326598 0.000000 -0.000000 0.000000 3.480656 8.513607 -23.468907 2.009658 2.541702 28.511016 3.383344 8.564546 -13.591696 0.000000 -0.000000 0.000000 -11.044903 -6.864927 14.781224 1.858821 -22.494101 8.349932 -1.346845 -11.311147 -11.081765 -11.136488 54.881138 7.486993 -2.642927 24.331375 3.934037 4.099495 -60.079260 -11.121237 -22.840173 -68.814671 -3.052184 1.612620 -19.699148 15.208865 10.054094 -13.838038 5.714624 8.327104 22.759521 -3.356854 56.226331 29.251987 10.716605 -98.317358 41.561251 -69.490730 -46.819370 1.910018 -41.436501 
0.138565 -0.110363 0.951959 147.520284 6.015027 89.987962 26.847106 13.194517 -2.506023 2.827142 8.607311 27.242585 -17.157087 2.818837 -1.428321 0.000000 -0.000000 0.000000 3.560218 8.686690 -23.569290 2.130502 3.087121 28.681401 3.796796 8.360396 -13.413408 0.000000 -0.000000 0.000000 -10.819948 -7.629542 15.276280 1.691229 -22.977486 7.218393 -1.449472 -11.525797 -11.239896 -13.034572 54.803226 5.089946 -2.629973 24.989195 3.344953 6.985629 -60.929176 -14.239382 -14.835121 -70.662353 -9.996792 2.480791 -20.282033 12.389518 12.295439 -15.629691 5.911231 6.499893 22.538281 -5.367241 51.491322 29.678155 8.488714 -101.263837 41.392890 -71.596393 -48.385683 4.673373 -37.859858 
0.143779 -0.108874 0.953374 147.062047 5.675154 90.148517 26.697812 13.480479 -1.848474 2.894313 8.411486 26.488938 -17.961333 2.906621 -0.609905 0.000000 -0.000000 0.000000 3.719653 8.934544 -23.572200 2.108009 3.859889 28.696882 3.867609 7.949034 -13.382474 0.000000 -0.000000 0.000000 -10.595484 -8.205156 15.554825 1.404606 -23.316115 6.412585 -1.467619 -11.675223 -11.610456 -14.357439 54.484669 3.437161 -2.452531 25.752735 2.721239 10.073920 -61.957419 -17.572052 -6.606665 -71.326892 -17.072422 3.253667 -21.504484 10.202253 14.206086 -16.925182 7.009519 4.317419 22.677978 -7.050448 46.852973 29.200592 5.984037 -104.251486 40.661371 -73.168924 -49.609233 7.481444 -34.725973 
0.148182 -0.107616 0.954631 146.646056 5.390077 90.248532 26.627136 13.838248 -1.257533 2.720320 8.075713 25.738549 -18.534299 3.283388 0.344540 0.000000 -0.000000 0.000000 3.908411 9.050244 -23.605762 2.133031 4.664443 28.795958 3.967979 7.539630 -13.363237 0.000000 -0.000000 0.000000 -10.294457 -8.676378 15.943181 1.115145 -23.507750 5.619012 -1.517475 -11.878723 -11.754243 -15.883628 53.989138 1.419757 -2.172575 26.495733 2.157756 13.986401 -62.599020 -21.747232 1.422941 -71.706230 -23.922283 3.668229 -22.443389 8.669331 15.992301 -17.995913 7.729621 1.805513 22.519579 -9.040587 42.689468 28.151720 3.691665 -106.746874 40.155851 -74.523036 -50.465196 9.821903 -32.021431 
0.152099 -0.106710 0.955963 146.199897 5.197533 90.370098 26.550961 14.268519 -0.750053 2.719020 7.645972 25.069553 -19.056406 3.593752 1.395332 0.000000 -0.000000 0.000000 4.173277 9.118358 -23.565906 2.188094 5.632938 28.696112 4.147903 7.137740 -13.152874 0.000000 -0.000000 0.000000 -9.765418 -9.310795 16.254061 0.792461 -23.523409 4.635488 -1.697515 -12.097712 -11.594093 -18.394080 53.527552 -1.392017 -1.708747 27.312369 2.105197 18.212923 -61.931484 -26.163282 7.321537 -72.141514 -29.103155 4.170972 -23.827933 8.225124 18.525855 -19.516093 8.046765 -1.091810 21.803936 -10.908459 39.414920 27.386782 1.700110 -108.700147 40.055088 -75.551000 -51.641171 12.024300 -29.890453 
0.155097 -0.105971 0.957078 145.808878 5.023640 90.570095 26.513720 14.477171 -0.358410 2.570593 7.447480 24.480224 -19.510266 3.835832 2.037532 0.000000 -0.000000 0.000000 4.360189 9.148430 -23.600133 2.176291 6.368896 28.522093 4.231740 6.904581 -13.051119 0.000000 -0.000000 0.000000 -9.339805 -9.619721 16.315016 0.331495 -23.559172 4.104470 -1.875570 -12.053666 -11.778803 -19.010561 53.240016 -1.886511 -1.589823 28.194054 1.258059 21.174492 -62.502425 -29.151847 13.794972 -71.886139 -34.781299 4.822171 -24.832655 6.619082 19.471917 -21.260572 7.464106 -3.246794 21.573613 -11.977601 35.769177 25.387256 -0.648995 -110.490827 39.390286 -75.876752 -52.475135 14.052468 -27.621145 
0.157931 -0.105725 0.958057 145.341243 4.961949 90.710128 26.675352 14.787642 -0.107731 2.657757 7.662998 24.084630 -20.461784 3.980987 3.227587 0.000000 -0.000000 0.000000 4.494966 9.301498 -23.649765 2.260881 6.649261 28.355633 4.359097 7.061570 -12.926390 0.000000 -0.000000 0.000000 -9.210763 -9.625090 16.357996 -0.004653 -23.461985 3.954638 -1.940141 -11.960616 -11.969712 -18.867938 53.007395 -2.146859 -1.783101 28.599621 0.881479 23.581070 -63.222342 -31.418576 19.337884 -71.850492 -39.822827 5.803959 -25.542849 4.568791 20.157241 -23.083864 7.793503 -4.872036 20.659714 -12.864379 32.589039 23.400450 -2.394685 -111.686565 39.378288 -76.326248 -53.193426 16.452333 -26.562120 
0.160002 -0.105608 0.959166 144.986985 4.862226 90.842828 26.621138 14.803506 0.070561 2.591580 7.599028 23.793627 -20.634880 4.442133 4.029249 0.000000 -0.000000 0.000000 4.631966 9.197706 -23.650307 2.389710 7.297504 28.182577 4.440329 6.972632 -12.675296 0.000000 -0.000000 0.000000 -9.017770 -9.821369 16.382848 -0.288248 -23.471453 3.504372 -2.080044 -11.977097 -11.676538 -20.425839 52.858147 -3.900454 -1.277860 28.919658 0.945219 25.920932 -62.816477 -33.845308 22.492267 -71.945603 -43.062450 6.600822 -26.939009 3.669450 21.458046 -23.759853 6.622887 -6.596575 19.960978 -13.186898 30.227721 22.035652 -4.400213 -113.510284 38.863709 -76.948066 -54.617977 16.992672 -25.440661 
0.161647 -0.105610 0.959885 144.695445 4.813416 90.963678 26.753196 14.880687 0.180202 2.509097 7.687603 23.621603 -20.997363 4.504548 4.699140 0.000000 -0.000000 0.000000 4.688754 9.244078 -23.729963 2.551831 7.639901 28.100111 4.555536 7.020064 -12.574716 0.000000 -0.000000 0.000000 -9.062194 -9.785460 16.237237 -0.563194 -23.533748 3.561138 -2.224664 -12.080130 -11.699710 -20.128227 53.076117 -3.595776 -1.335545 29.678587 0.448502 26.854253 -63.410386 -34.734260 26.508321 -71.731509 -46.271547 7.098031 -27.381087 2.627145 21.960012 -25.114724 6.664175 -7.500407 19.251540 -13.801887 28.806895 20.513809 -5.072893 -114.630959 38.493381 -77.291124 -53.072538 18.844807 -24.466137 
0.162856 -0.105357 0.960620 144.490670 4.887066 90.954429 26.951668 15.249090 0.214554 2.649957 7.732709 23.676802 -21.492941 4.579345 5.467675 0.000000 -0.000000 0.000000 4.949886 9.106589 -23.562156 2.552561 7.934647 27.880953 4.581301 7.125198 -12.457027 0.000000 -0.000000 0.000000 -8.993726 -9.926328 16.406734 -0.766287 -23.628136 3.214488 -2.269665 -12.073082 -11.591437 -20.253040 52.933936 -3.548424 -1.187034 29.964414 0.382322 28.027341 -63.419071 -35.962672 28.130326 -71.515504 -47.869524 7.253113 -28.032623 2.519290 22.694813 -25.712024 6.702535 -8.427265 18.702981 -13.998409 27.965762 19.306744 -5.844465 -115.426015 38.674803 -77.759821 -54.580525 19.514541 -24.234007 
0.163520 -0.105361 0.961058 144.223087 4.948284 90.937776 27.085765 15.207424 0.368511 2.596557 7.606420 23.660344 -21.817826 4.715550 5.766670 0.000000 -0.000000 0.000000 5.073747 9.138510 -23.427039 2.663453 8.233075 27.689977 4.666276 7.206075 -12.357287 0.000000 -0.000000 0.000000 -9.068016 -9.952188 16.485681 -0.884574 -23.618772 3.011524 -2.306436 -12.131067 -11.397427 -20.325991 52.935789 -3.753715 -0.972022 30.153534 0.517366 28.728569 -63.294674 -36.593002 29.574199 -71.383747 -49.217567 7.297921 -28.410018 1.943172 23.663987 -26.228175 6.645029 -9.108021 18.149991 -14.178166 27.455579 18.426258 -6.147896 -115.816337 38.726469 -78.131844 -55.185656 19.821968 -24.230437 
